<mxfile host="app.diagrams.net" modified="2024-01-10T01:27:07.209Z" agent="Mozilla/5.0 (Windows NT 10.0; Win64; x64) AppleWebKit/537.36 (KHTML, like Gecko) Chrome/120.0.0.0 Safari/537.36" etag="1BnQmNp7OAc1X0THR7sN" version="22.1.18" type="device">
  <diagram name="ページ1" id="I8G5dmr-rghMtZbBtlSh">
    <mxGraphModel dx="794" dy="454" grid="1" gridSize="10" guides="1" tooltips="1" connect="1" arrows="1" fold="1" page="1" pageScale="1" pageWidth="827" pageHeight="1169" math="0" shadow="0">
      <root>
        <mxCell id="0" />
        <mxCell id="1" parent="0" />
        <mxCell id="s8OS5eQEMWvmWDuyg1dU-7" style="edgeStyle=orthogonalEdgeStyle;rounded=0;orthogonalLoop=1;jettySize=auto;html=1;exitX=1;exitY=0.5;exitDx=0;exitDy=0;entryX=0;entryY=0.5;entryDx=0;entryDy=0;" edge="1" parent="1" source="s8OS5eQEMWvmWDuyg1dU-1" target="s8OS5eQEMWvmWDuyg1dU-3">
          <mxGeometry relative="1" as="geometry" />
        </mxCell>
        <mxCell id="s8OS5eQEMWvmWDuyg1dU-1" value="&lt;ul&gt;&lt;li&gt;リストID&lt;/li&gt;&lt;li style=&quot;&quot;&gt;リスト名&lt;/li&gt;&lt;/ul&gt;" style="rounded=0;whiteSpace=wrap;html=1;align=left;verticalAlign=bottom;" vertex="1" parent="1">
          <mxGeometry x="120" y="80" width="160" height="90" as="geometry" />
        </mxCell>
        <mxCell id="s8OS5eQEMWvmWDuyg1dU-2" value="リスト情報" style="rounded=0;whiteSpace=wrap;html=1;" vertex="1" parent="1">
          <mxGeometry x="120" y="80" width="160" height="30" as="geometry" />
        </mxCell>
        <mxCell id="s8OS5eQEMWvmWDuyg1dU-3" value="&lt;ul&gt;&lt;li&gt;リストID&lt;/li&gt;&lt;li&gt;楽曲名&lt;/li&gt;&lt;li&gt;アーティスト名&lt;/li&gt;&lt;li&gt;楽曲URL&lt;/li&gt;&lt;/ul&gt;" style="rounded=0;whiteSpace=wrap;html=1;align=left;verticalAlign=bottom;" vertex="1" parent="1">
          <mxGeometry x="340" y="65" width="160" height="120" as="geometry" />
        </mxCell>
        <mxCell id="s8OS5eQEMWvmWDuyg1dU-4" value="楽曲情報" style="rounded=0;whiteSpace=wrap;html=1;" vertex="1" parent="1">
          <mxGeometry x="340" y="65" width="160" height="30" as="geometry" />
        </mxCell>
      </root>
    </mxGraphModel>
  </diagram>
</mxfile>
